<?xml version="1.0" encoding="UTF-8" standalone="no"?><!-- Generator: Gravit.io --><svg xmlns="http://www.w3.org/2000/svg" xmlns:xlink="http://www.w3.org/1999/xlink" style="isolation:isolate" viewBox="0 0 1000 336.5" width="1000pt" height="336.5pt"><defs><clipPath id="_clipPath_uSkNuuR1a5nyDFbjY4Oc2nUmJT6uTsLw"><rect width="1000" height="336.5"/></clipPath></defs><g clip-path="url(#_clipPath_uSkNuuR1a5nyDFbjY4Oc2nUmJT6uTsLw)"><g><path d=" M 143.204 209.35 L 143.204 209.35 L 143.204 209.35 Q 132.227 209.35 124.716 205.812 L 124.716 205.812 L 124.716 205.812 Q 117.206 202.273 111.284 195.774 L 111.284 195.774 L 123.85 183.063 L 123.85 183.063 Q 127.894 187.541 132.804 190.141 L 132.804 190.141 L 132.804 190.141 Q 137.715 192.741 143.926 192.741 L 143.926 192.741 L 143.926 192.741 Q 150.281 192.741 152.736 190.791 L 152.736 190.791 L 152.736 190.791 Q 155.192 188.841 155.192 185.519 L 155.192 185.519 L 155.192 185.519 Q 155.192 180.175 147.537 179.164 L 147.537 179.164 L 139.304 178.153 L 139.304 178.153 Q 113.739 174.975 113.739 154.754 L 113.739 154.754 L 113.739 154.754 Q 113.739 149.266 115.834 144.716 L 115.834 144.716 L 115.834 144.716 Q 117.928 140.167 121.755 136.917 L 121.755 136.917 L 121.755 136.917 Q 125.583 133.667 130.999 131.862 L 130.999 131.862 L 130.999 131.862 Q 136.415 130.056 143.204 130.056 L 143.204 130.056 L 143.204 130.056 Q 149.125 130.056 153.675 130.851 L 153.675 130.851 L 153.675 130.851 Q 158.225 131.645 161.763 133.162 L 161.763 133.162 L 161.763 133.162 Q 165.302 134.678 168.263 136.917 L 168.263 136.917 L 168.263 136.917 Q 171.224 139.156 174.113 141.9 L 174.113 141.9 L 161.836 154.466 L 161.836 154.466 Q 158.225 150.855 153.675 148.76 L 153.675 148.76 L 153.675 148.76 Q 149.125 146.666 144.359 146.666 L 144.359 146.666 L 144.359 146.666 Q 138.871 146.666 136.56 148.399 L 136.56 148.399 L 136.56 148.399 Q 134.249 150.133 134.249 153.021 L 134.249 153.021 L 134.249 153.021 Q 134.249 156.054 135.91 157.715 L 135.91 157.715 L 135.91 157.715 Q 137.571 159.376 142.193 160.099 L 142.193 160.099 L 150.714 161.254 L 150.714 161.254 Q 175.701 164.576 175.701 184.074 L 175.701 184.074 L 175.701 184.074 Q 175.701 189.563 173.39 194.185 L 173.39 194.185 L 173.39 194.185 Q 171.079 198.807 166.819 202.201 L 166.819 202.201 L 166.819 202.201 Q 162.558 205.595 156.564 207.473 L 156.564 207.473 L 156.564 207.473 Q 150.57 209.35 143.204 209.35 Z  M 218.652 209.35 L 218.652 209.35 L 218.652 209.35 Q 210.131 209.35 203.487 206.534 L 203.487 206.534 L 203.487 206.534 Q 196.843 203.717 192.365 198.59 L 192.365 198.59 L 192.365 198.59 Q 187.888 193.463 185.577 186.097 L 185.577 186.097 L 185.577 186.097 Q 183.266 178.73 183.266 169.631 L 183.266 169.631 L 183.266 169.631 Q 183.266 160.532 185.577 153.238 L 185.577 153.238 L 185.577 153.238 Q 187.888 145.944 192.365 140.744 L 192.365 140.744 L 192.365 140.744 Q 196.843 135.545 203.487 132.801 L 203.487 132.801 L 203.487 132.801 Q 210.131 130.056 218.652 130.056 L 218.652 130.056 L 218.652 130.056 Q 230.207 130.056 237.934 135.256 L 237.934 135.256 L 237.934 135.256 Q 245.661 140.456 248.983 149.844 L 248.983 149.844 L 231.651 157.354 L 231.651 157.354 Q 230.64 153.021 227.463 149.988 L 227.463 149.988 L 227.463 149.988 Q 224.285 146.955 218.652 146.955 L 218.652 146.955 L 218.652 146.955 Q 212.153 146.955 208.831 151.202 L 208.831 151.202 L 208.831 151.202 Q 205.509 155.45 205.509 162.648 L 205.509 162.648 L 205.509 176.758 L 205.509 176.758 Q 205.509 183.957 208.831 188.204 L 208.831 188.204 L 208.831 188.204 Q 212.153 192.452 218.652 192.452 L 218.652 192.452 L 218.652 192.452 Q 225.007 192.452 228.113 189.074 L 228.113 189.074 L 228.113 189.074 Q 231.218 185.696 232.807 181.083 L 232.807 181.083 L 249.417 188.287 L 249.417 188.287 Q 245.661 199.153 237.79 204.252 L 237.79 204.252 L 237.79 204.252 Q 229.918 209.35 218.652 209.35 Z  M 281.824 207.617 L 260.448 207.617 L 260.448 131.79 L 281.824 131.79 L 281.824 148.255 L 282.546 148.255 L 282.546 148.255 Q 283.124 145.077 284.568 142.117 L 284.568 142.117 L 284.568 142.117 Q 286.012 139.156 288.396 136.845 L 288.396 136.845 L 288.396 136.845 Q 290.779 134.534 294.101 133.162 L 294.101 133.162 L 294.101 133.162 Q 297.423 131.79 301.9 131.79 L 301.9 131.79 L 305.655 131.79 L 305.655 151.721 L 300.311 151.721 L 300.311 151.721 Q 290.923 151.721 286.374 154.177 L 286.374 154.177 L 286.374 154.177 Q 281.824 156.632 281.824 163.276 L 281.824 163.276 L 281.824 207.617 Z  M 382.404 207.617 L 370.56 207.617 L 370.56 207.617 Q 364.783 207.617 360.956 204.006 L 360.956 204.006 L 360.956 204.006 Q 357.128 200.396 356.117 194.329 L 356.117 194.329 L 355.25 194.329 L 355.25 194.329 Q 353.517 201.695 347.595 205.523 L 347.595 205.523 L 347.595 205.523 Q 341.674 209.35 333.008 209.35 L 333.008 209.35 L 333.008 209.35 Q 321.597 209.35 315.531 203.303 L 315.531 203.303 L 315.531 203.303 Q 309.465 197.256 309.465 187.322 L 309.465 187.322 L 309.465 187.322 Q 309.465 175.372 318.203 169.54 L 318.203 169.54 L 318.203 169.54 Q 326.941 163.709 341.962 163.709 L 341.962 163.709 L 353.95 163.709 L 353.95 158.943 L 353.95 158.943 Q 353.95 153.455 351.062 150.205 L 351.062 150.205 L 351.062 150.205 Q 348.173 146.955 341.385 146.955 L 341.385 146.955 L 341.385 146.955 Q 335.03 146.955 331.274 149.699 L 331.274 149.699 L 331.274 149.699 Q 327.519 152.444 325.064 155.91 L 325.064 155.91 L 312.354 144.581 L 312.354 144.581 Q 316.975 137.754 323.98 133.905 L 323.98 133.905 L 323.98 133.905 Q 330.986 130.056 342.974 130.056 L 342.974 130.056 L 342.974 130.056 Q 359.15 130.056 367.238 137.134 L 367.238 137.134 L 367.238 137.134 Q 375.327 144.211 375.327 157.788 L 375.327 157.788 L 375.327 191.007 L 382.404 191.007 L 382.404 207.617 Z  M 340.951 194.474 L 340.951 194.474 L 340.951 194.474 Q 346.295 194.474 350.123 192.181 L 350.123 192.181 L 350.123 192.181 Q 353.95 189.887 353.95 184.728 L 353.95 184.728 L 353.95 175.842 L 343.551 175.842 L 343.551 175.842 Q 330.986 175.842 330.986 184.298 L 330.986 184.298 L 330.986 186.448 L 330.986 186.448 Q 330.986 190.604 333.585 192.539 L 333.585 192.539 L 333.585 192.539 Q 336.185 194.474 340.951 194.474 Z  M 394.446 236.504 L 394.446 131.79 L 415.822 131.79 L 415.822 144.5 L 416.544 144.5 L 416.544 144.5 Q 418.133 138.145 423.838 134.1 L 423.838 134.1 L 423.838 134.1 Q 429.543 130.056 436.91 130.056 L 436.91 130.056 L 436.91 130.056 Q 451.353 130.056 458.719 140.167 L 458.719 140.167 L 458.719 140.167 Q 466.085 150.277 466.085 169.631 L 466.085 169.631 L 466.085 169.631 Q 466.085 188.985 458.719 199.168 L 458.719 199.168 L 458.719 199.168 Q 451.353 209.35 436.91 209.35 L 436.91 209.35 L 436.91 209.35 Q 433.154 209.35 429.832 208.267 L 429.832 208.267 L 429.832 208.267 Q 426.51 207.184 423.838 205.234 L 423.838 205.234 L 423.838 205.234 Q 421.166 203.284 419.289 200.612 L 419.289 200.612 L 419.289 200.612 Q 417.411 197.94 416.544 194.907 L 416.544 194.907 L 415.822 194.907 L 415.822 236.504 L 394.446 236.504 Z  M 429.832 192.018 L 429.832 192.018 L 429.832 192.018 Q 435.899 192.018 439.87 187.758 L 439.87 187.758 L 439.87 187.758 Q 443.842 183.497 443.842 176.275 L 443.842 176.275 L 443.842 163.132 L 443.842 163.132 Q 443.842 155.91 439.87 151.649 L 439.87 151.649 L 439.87 151.649 Q 435.899 147.388 429.832 147.388 L 429.832 147.388 L 429.832 147.388 Q 423.766 147.388 419.794 150.349 L 419.794 150.349 L 419.794 150.349 Q 415.822 153.31 415.822 158.51 L 415.822 158.51 L 415.822 180.897 L 415.822 180.897 Q 415.822 186.097 419.794 189.057 L 419.794 189.057 L 419.794 189.057 Q 423.766 192.018 429.832 192.018 Z  M 480.005 236.504 L 480.005 131.79 L 501.381 131.79 L 501.381 144.5 L 502.103 144.5 L 502.103 144.5 Q 503.692 138.145 509.397 134.1 L 509.397 134.1 L 509.397 134.1 Q 515.102 130.056 522.468 130.056 L 522.468 130.056 L 522.468 130.056 Q 536.912 130.056 544.278 140.167 L 544.278 140.167 L 544.278 140.167 Q 551.644 150.277 551.644 169.631 L 551.644 169.631 L 551.644 169.631 Q 551.644 188.985 544.278 199.168 L 544.278 199.168 L 544.278 199.168 Q 536.912 209.35 522.468 209.35 L 522.468 209.35 L 522.468 209.35 Q 518.713 209.35 515.391 208.267 L 515.391 208.267 L 515.391 208.267 Q 512.069 207.184 509.397 205.234 L 509.397 205.234 L 509.397 205.234 Q 506.725 203.284 504.848 200.612 L 504.848 200.612 L 504.848 200.612 Q 502.97 197.94 502.103 194.907 L 502.103 194.907 L 501.381 194.907 L 501.381 236.504 L 480.005 236.504 Z  M 515.391 192.018 L 515.391 192.018 L 515.391 192.018 Q 521.457 192.018 525.429 187.758 L 525.429 187.758 L 525.429 187.758 Q 529.401 183.497 529.401 176.275 L 529.401 176.275 L 529.401 163.132 L 529.401 163.132 Q 529.401 155.91 525.429 151.649 L 525.429 151.649 L 525.429 151.649 Q 521.457 147.388 515.391 147.388 L 515.391 147.388 L 515.391 147.388 Q 509.325 147.388 505.353 150.349 L 505.353 150.349 L 505.353 150.349 Q 501.381 153.31 501.381 158.51 L 501.381 158.51 L 501.381 180.897 L 501.381 180.897 Q 501.381 186.097 505.353 189.057 L 505.353 189.057 L 505.353 189.057 Q 509.325 192.018 515.391 192.018 Z  M 597.195 209.35 L 597.195 209.35 L 597.195 209.35 Q 588.529 209.35 581.74 206.534 L 581.74 206.534 L 581.74 206.534 Q 574.952 203.717 570.258 198.59 L 570.258 198.59 L 570.258 198.59 Q 565.564 193.463 563.181 186.097 L 563.181 186.097 L 563.181 186.097 Q 560.798 178.73 560.798 169.631 L 560.798 169.631 L 560.798 169.631 Q 560.798 160.676 563.108 153.382 L 563.108 153.382 L 563.108 153.382 Q 565.419 146.088 569.969 140.889 L 569.969 140.889 L 569.969 140.889 Q 574.519 135.689 581.163 132.873 L 581.163 132.873 L 581.163 132.873 Q 587.807 130.056 596.328 130.056 L 596.328 130.056 L 596.328 130.056 Q 605.716 130.056 612.433 133.234 L 612.433 133.234 L 612.433 133.234 Q 619.149 136.411 623.41 141.755 L 623.41 141.755 L 623.41 141.755 Q 627.67 147.099 629.62 154.105 L 629.62 154.105 L 629.62 154.105 Q 631.57 161.11 631.57 168.765 L 631.57 168.765 L 631.57 175.12 L 582.896 175.12 L 582.896 176.266 L 582.896 176.266 Q 582.896 183.714 586.94 188.083 L 586.94 188.083 L 586.94 188.083 Q 590.984 192.452 599.65 192.452 L 599.65 192.452 L 599.65 192.452 Q 606.294 192.452 610.483 189.802 L 610.483 189.802 L 610.483 189.802 Q 614.671 187.152 618.282 183.428 L 618.282 183.428 L 628.97 196.751 L 628.97 196.751 Q 623.915 202.689 615.755 206.02 L 615.755 206.02 L 615.755 206.02 Q 607.594 209.35 597.195 209.35 Z  M 596.762 145.8 L 596.762 145.8 L 596.762 145.8 Q 590.262 145.8 586.579 150.06 L 586.579 150.06 L 586.579 150.06 Q 582.896 154.321 582.896 161.398 L 582.896 161.398 L 582.896 162.554 L 609.472 162.554 L 609.472 161.254 L 609.472 161.254 Q 609.472 154.321 606.366 150.06 L 606.366 150.06 L 606.366 150.06 Q 603.261 145.8 596.762 145.8 Z  M 683.765 207.617 L 671.055 207.617 L 671.055 207.617 Q 659.933 207.617 654.228 201.984 L 654.228 201.984 L 654.228 201.984 Q 648.523 196.351 648.523 185.519 L 648.523 185.519 L 648.523 148.399 L 637.835 148.399 L 637.835 131.79 L 643.179 131.79 L 643.179 131.79 Q 647.512 131.79 649.101 129.695 L 649.101 129.695 L 649.101 129.695 Q 650.689 127.601 650.689 123.701 L 650.689 123.701 L 650.689 111.28 L 669.899 111.28 L 669.899 131.79 L 684.92 131.79 L 684.92 148.399 L 669.899 148.399 L 669.899 191.007 L 683.765 191.007 L 683.765 207.617 Z  M 728.593 209.35 L 728.593 209.35 L 728.593 209.35 Q 719.927 209.35 713.139 206.534 L 713.139 206.534 L 713.139 206.534 Q 706.351 203.717 701.656 198.59 L 701.656 198.59 L 701.656 198.59 Q 696.962 193.463 694.579 186.097 L 694.579 186.097 L 694.579 186.097 Q 692.196 178.73 692.196 169.631 L 692.196 169.631 L 692.196 169.631 Q 692.196 160.676 694.507 153.382 L 694.507 153.382 L 694.507 153.382 Q 696.818 146.088 701.368 140.889 L 701.368 140.889 L 701.368 140.889 Q 705.917 135.689 712.561 132.873 L 712.561 132.873 L 712.561 132.873 Q 719.205 130.056 727.727 130.056 L 727.727 130.056 L 727.727 130.056 Q 737.115 130.056 743.831 133.234 L 743.831 133.234 L 743.831 133.234 Q 750.547 136.411 754.808 141.755 L 754.808 141.755 L 754.808 141.755 Q 759.069 147.099 761.019 154.105 L 761.019 154.105 L 761.019 154.105 Q 762.969 161.11 762.969 168.765 L 762.969 168.765 L 762.969 175.12 L 714.294 175.12 L 714.294 176.266 L 714.294 176.266 Q 714.294 183.714 718.339 188.083 L 718.339 188.083 L 718.339 188.083 Q 722.383 192.452 731.049 192.452 L 731.049 192.452 L 731.049 192.452 Q 737.693 192.452 741.881 189.802 L 741.881 189.802 L 741.881 189.802 Q 746.07 187.152 749.681 183.428 L 749.681 183.428 L 760.369 196.751 L 760.369 196.751 Q 755.314 202.689 747.153 206.02 L 747.153 206.02 L 747.153 206.02 Q 738.993 209.35 728.593 209.35 Z  M 728.16 145.8 L 728.16 145.8 L 728.16 145.8 Q 721.66 145.8 717.977 150.06 L 717.977 150.06 L 717.977 150.06 Q 714.294 154.321 714.294 161.398 L 714.294 161.398 L 714.294 162.554 L 740.87 162.554 L 740.87 161.254 L 740.87 161.254 Q 740.87 154.321 737.765 150.06 L 737.765 150.06 L 737.765 150.06 Q 734.66 145.8 728.16 145.8 Z  M 807.508 209.35 L 807.508 209.35 L 807.508 209.35 Q 798.842 209.35 792.054 206.534 L 792.054 206.534 L 792.054 206.534 Q 785.266 203.717 780.571 198.59 L 780.571 198.59 L 780.571 198.59 Q 775.877 193.463 773.494 186.097 L 773.494 186.097 L 773.494 186.097 Q 771.111 178.73 771.111 169.631 L 771.111 169.631 L 771.111 169.631 Q 771.111 160.676 773.422 153.382 L 773.422 153.382 L 773.422 153.382 Q 775.733 146.088 780.283 140.889 L 780.283 140.889 L 780.283 140.889 Q 784.832 135.689 791.476 132.873 L 791.476 132.873 L 791.476 132.873 Q 798.12 130.056 806.642 130.056 L 806.642 130.056 L 806.642 130.056 Q 816.03 130.056 822.746 133.234 L 822.746 133.234 L 822.746 133.234 Q 829.462 136.411 833.723 141.755 L 833.723 141.755 L 833.723 141.755 Q 837.984 147.099 839.934 154.105 L 839.934 154.105 L 839.934 154.105 Q 841.883 161.11 841.883 168.765 L 841.883 168.765 L 841.883 175.12 L 793.209 175.12 L 793.209 176.266 L 793.209 176.266 Q 793.209 183.714 797.253 188.083 L 797.253 188.083 L 797.253 188.083 Q 801.298 192.452 809.964 192.452 L 809.964 192.452 L 809.964 192.452 Q 816.608 192.452 820.796 189.802 L 820.796 189.802 L 820.796 189.802 Q 824.985 187.152 828.596 183.428 L 828.596 183.428 L 839.284 196.751 L 839.284 196.751 Q 834.228 202.689 826.068 206.02 L 826.068 206.02 L 826.068 206.02 Q 817.908 209.35 807.508 209.35 Z  M 807.075 145.8 L 807.075 145.8 L 807.075 145.8 Q 800.575 145.8 796.892 150.06 L 796.892 150.06 L 796.892 150.06 Q 793.209 154.321 793.209 161.398 L 793.209 161.398 L 793.209 162.554 L 819.785 162.554 L 819.785 161.254 L 819.785 161.254 Q 819.785 154.321 816.68 150.06 L 816.68 150.06 L 816.68 150.06 Q 813.574 145.8 807.075 145.8 Z  M 876.168 207.617 L 854.792 207.617 L 854.792 131.79 L 876.168 131.79 L 876.168 148.255 L 876.891 148.255 L 876.891 148.255 Q 877.468 145.077 878.913 142.117 L 878.913 142.117 L 878.913 142.117 Q 880.357 139.156 882.74 136.845 L 882.74 136.845 L 882.74 136.845 Q 885.123 134.534 888.445 133.162 L 888.445 133.162 L 888.445 133.162 Q 891.767 131.79 896.245 131.79 L 896.245 131.79 L 900 131.79 L 900 151.721 L 894.656 151.721 L 894.656 151.721 Q 885.268 151.721 880.718 154.177 L 880.718 154.177 L 880.718 154.177 Q 876.168 156.632 876.168 163.276 L 876.168 163.276 L 876.168 207.617 Z " fill="rgb(255,255,0)"/><path d=" M 137.562 203.708 L 137.562 203.708 L 137.562 203.708 Q 126.585 203.708 119.074 200.17 L 119.074 200.17 L 119.074 200.17 Q 111.564 196.631 105.642 190.132 L 105.642 190.132 L 118.208 177.422 L 118.208 177.422 Q 122.252 181.899 127.163 184.499 L 127.163 184.499 L 127.163 184.499 Q 132.073 187.099 138.284 187.099 L 138.284 187.099 L 138.284 187.099 Q 144.639 187.099 147.094 185.149 L 147.094 185.149 L 147.094 185.149 Q 149.55 183.199 149.55 179.877 L 149.55 179.877 L 149.55 179.877 Q 149.55 174.533 141.895 173.522 L 141.895 173.522 L 133.662 172.511 L 133.662 172.511 Q 108.097 169.333 108.097 149.113 L 108.097 149.113 L 108.097 149.113 Q 108.097 143.624 110.192 139.074 L 110.192 139.074 L 110.192 139.074 Q 112.286 134.525 116.113 131.275 L 116.113 131.275 L 116.113 131.275 Q 119.941 128.025 125.357 126.22 L 125.357 126.22 L 125.357 126.22 Q 130.773 124.414 137.562 124.414 L 137.562 124.414 L 137.562 124.414 Q 143.484 124.414 148.033 125.209 L 148.033 125.209 L 148.033 125.209 Q 152.583 126.003 156.121 127.52 L 156.121 127.52 L 156.121 127.52 Q 159.66 129.036 162.621 131.275 L 162.621 131.275 L 162.621 131.275 Q 165.582 133.514 168.471 136.258 L 168.471 136.258 L 156.194 148.824 L 156.194 148.824 Q 152.583 145.213 148.033 143.119 L 148.033 143.119 L 148.033 143.119 Q 143.484 141.024 138.717 141.024 L 138.717 141.024 L 138.717 141.024 Q 133.229 141.024 130.918 142.757 L 130.918 142.757 L 130.918 142.757 Q 128.607 144.491 128.607 147.379 L 128.607 147.379 L 128.607 147.379 Q 128.607 150.412 130.268 152.073 L 130.268 152.073 L 130.268 152.073 Q 131.929 153.734 136.551 154.457 L 136.551 154.457 L 145.072 155.612 L 145.072 155.612 Q 170.059 158.934 170.059 178.433 L 170.059 178.433 L 170.059 178.433 Q 170.059 183.921 167.748 188.543 L 167.748 188.543 L 167.748 188.543 Q 165.437 193.165 161.177 196.559 L 161.177 196.559 L 161.177 196.559 Q 156.916 199.953 150.922 201.831 L 150.922 201.831 L 150.922 201.831 Q 144.928 203.708 137.562 203.708 Z  M 213.01 203.708 L 213.01 203.708 L 213.01 203.708 Q 204.489 203.708 197.845 200.892 L 197.845 200.892 L 197.845 200.892 Q 191.201 198.076 186.723 192.948 L 186.723 192.948 L 186.723 192.948 Q 182.246 187.821 179.935 180.455 L 179.935 180.455 L 179.935 180.455 Q 177.624 173.089 177.624 163.989 L 177.624 163.989 L 177.624 163.989 Q 177.624 154.89 179.935 147.596 L 179.935 147.596 L 179.935 147.596 Q 182.246 140.302 186.723 135.102 L 186.723 135.102 L 186.723 135.102 Q 191.201 129.903 197.845 127.159 L 197.845 127.159 L 197.845 127.159 Q 204.489 124.414 213.01 124.414 L 213.01 124.414 L 213.01 124.414 Q 224.565 124.414 232.292 129.614 L 232.292 129.614 L 232.292 129.614 Q 240.019 134.814 243.341 144.202 L 243.341 144.202 L 226.009 151.712 L 226.009 151.712 Q 224.998 147.379 221.821 144.346 L 221.821 144.346 L 221.821 144.346 Q 218.643 141.313 213.01 141.313 L 213.01 141.313 L 213.01 141.313 Q 206.511 141.313 203.189 145.56 L 203.189 145.56 L 203.189 145.56 Q 199.867 149.808 199.867 157.007 L 199.867 157.007 L 199.867 171.116 L 199.867 171.116 Q 199.867 178.315 203.189 182.562 L 203.189 182.562 L 203.189 182.562 Q 206.511 186.81 213.01 186.81 L 213.01 186.81 L 213.01 186.81 Q 219.365 186.81 222.471 183.432 L 222.471 183.432 L 222.471 183.432 Q 225.576 180.054 227.165 175.441 L 227.165 175.441 L 243.775 182.645 L 243.775 182.645 Q 240.019 193.511 232.148 198.61 L 232.148 198.61 L 232.148 198.61 Q 224.276 203.708 213.01 203.708 Z  M 276.182 201.975 L 254.806 201.975 L 254.806 126.148 L 276.182 126.148 L 276.182 142.613 L 276.904 142.613 L 276.904 142.613 Q 277.482 139.435 278.926 136.475 L 278.926 136.475 L 278.926 136.475 Q 280.371 133.514 282.754 131.203 L 282.754 131.203 L 282.754 131.203 Q 285.137 128.892 288.459 127.52 L 288.459 127.52 L 288.459 127.52 Q 291.781 126.148 296.258 126.148 L 296.258 126.148 L 300.014 126.148 L 300.014 146.079 L 294.669 146.079 L 294.669 146.079 Q 285.281 146.079 280.732 148.535 L 280.732 148.535 L 280.732 148.535 Q 276.182 150.99 276.182 157.634 L 276.182 157.634 L 276.182 201.975 Z  M 376.762 201.975 L 364.918 201.975 L 364.918 201.975 Q 359.141 201.975 355.314 198.364 L 355.314 198.364 L 355.314 198.364 Q 351.486 194.754 350.475 188.687 L 350.475 188.687 L 349.608 188.687 L 349.608 188.687 Q 347.875 196.053 341.953 199.881 L 341.953 199.881 L 341.953 199.881 Q 336.032 203.708 327.366 203.708 L 327.366 203.708 L 327.366 203.708 Q 315.955 203.708 309.889 197.661 L 309.889 197.661 L 309.889 197.661 Q 303.823 191.614 303.823 181.68 L 303.823 181.68 L 303.823 181.68 Q 303.823 169.73 312.561 163.899 L 312.561 163.899 L 312.561 163.899 Q 321.299 158.067 336.321 158.067 L 336.321 158.067 L 348.309 158.067 L 348.309 153.301 L 348.309 153.301 Q 348.309 147.813 345.42 144.563 L 345.42 144.563 L 345.42 144.563 Q 342.531 141.313 335.743 141.313 L 335.743 141.313 L 335.743 141.313 Q 329.388 141.313 325.632 144.057 L 325.632 144.057 L 325.632 144.057 Q 321.877 146.802 319.422 150.268 L 319.422 150.268 L 306.712 138.939 L 306.712 138.939 Q 311.334 132.112 318.339 128.263 L 318.339 128.263 L 318.339 128.263 Q 325.344 124.414 337.332 124.414 L 337.332 124.414 L 337.332 124.414 Q 353.508 124.414 361.596 131.492 L 361.596 131.492 L 361.596 131.492 Q 369.685 138.569 369.685 152.146 L 369.685 152.146 L 369.685 185.365 L 376.762 185.365 L 376.762 201.975 Z  M 335.31 188.832 L 335.31 188.832 L 335.31 188.832 Q 340.654 188.832 344.481 186.539 L 344.481 186.539 L 344.481 186.539 Q 348.309 184.245 348.309 179.086 L 348.309 179.086 L 348.309 170.2 L 337.909 170.2 L 337.909 170.2 Q 325.344 170.2 325.344 178.656 L 325.344 178.656 L 325.344 180.806 L 325.344 180.806 Q 325.344 184.962 327.943 186.897 L 327.943 186.897 L 327.943 186.897 Q 330.543 188.832 335.31 188.832 Z  M 388.804 230.862 L 388.804 126.148 L 410.18 126.148 L 410.18 138.858 L 410.902 138.858 L 410.902 138.858 Q 412.491 132.503 418.196 128.459 L 418.196 128.459 L 418.196 128.459 Q 423.902 124.414 431.268 124.414 L 431.268 124.414 L 431.268 124.414 Q 445.711 124.414 453.077 134.525 L 453.077 134.525 L 453.077 134.525 Q 460.443 144.635 460.443 163.989 L 460.443 163.989 L 460.443 163.989 Q 460.443 183.343 453.077 193.526 L 453.077 193.526 L 453.077 193.526 Q 445.711 203.708 431.268 203.708 L 431.268 203.708 L 431.268 203.708 Q 427.512 203.708 424.19 202.625 L 424.19 202.625 L 424.19 202.625 Q 420.868 201.542 418.196 199.592 L 418.196 199.592 L 418.196 199.592 Q 415.524 197.642 413.647 194.97 L 413.647 194.97 L 413.647 194.97 Q 411.769 192.298 410.902 189.265 L 410.902 189.265 L 410.18 189.265 L 410.18 230.862 L 388.804 230.862 Z  M 424.19 186.376 L 424.19 186.376 L 424.19 186.376 Q 430.257 186.376 434.229 182.116 L 434.229 182.116 L 434.229 182.116 Q 438.2 177.855 438.2 170.633 L 438.2 170.633 L 438.2 157.49 L 438.2 157.49 Q 438.2 150.268 434.229 146.007 L 434.229 146.007 L 434.229 146.007 Q 430.257 141.746 424.19 141.746 L 424.19 141.746 L 424.19 141.746 Q 418.124 141.746 414.152 144.707 L 414.152 144.707 L 414.152 144.707 Q 410.18 147.668 410.18 152.868 L 410.18 152.868 L 410.18 175.255 L 410.18 175.255 Q 410.18 180.455 414.152 183.416 L 414.152 183.416 L 414.152 183.416 Q 418.124 186.376 424.19 186.376 Z  M 474.363 230.862 L 474.363 126.148 L 495.739 126.148 L 495.739 138.858 L 496.461 138.858 L 496.461 138.858 Q 498.05 132.503 503.755 128.459 L 503.755 128.459 L 503.755 128.459 Q 509.46 124.414 516.827 124.414 L 516.827 124.414 L 516.827 124.414 Q 531.27 124.414 538.636 134.525 L 538.636 134.525 L 538.636 134.525 Q 546.002 144.635 546.002 163.989 L 546.002 163.989 L 546.002 163.989 Q 546.002 183.343 538.636 193.526 L 538.636 193.526 L 538.636 193.526 Q 531.27 203.708 516.827 203.708 L 516.827 203.708 L 516.827 203.708 Q 513.071 203.708 509.749 202.625 L 509.749 202.625 L 509.749 202.625 Q 506.427 201.542 503.755 199.592 L 503.755 199.592 L 503.755 199.592 Q 501.083 197.642 499.206 194.97 L 499.206 194.97 L 499.206 194.97 Q 497.328 192.298 496.461 189.265 L 496.461 189.265 L 495.739 189.265 L 495.739 230.862 L 474.363 230.862 Z  M 509.749 186.376 L 509.749 186.376 L 509.749 186.376 Q 515.815 186.376 519.787 182.116 L 519.787 182.116 L 519.787 182.116 Q 523.759 177.855 523.759 170.633 L 523.759 170.633 L 523.759 157.49 L 523.759 157.49 Q 523.759 150.268 519.787 146.007 L 519.787 146.007 L 519.787 146.007 Q 515.815 141.746 509.749 141.746 L 509.749 141.746 L 509.749 141.746 Q 503.683 141.746 499.711 144.707 L 499.711 144.707 L 499.711 144.707 Q 495.739 147.668 495.739 152.868 L 495.739 152.868 L 495.739 175.255 L 495.739 175.255 Q 495.739 180.455 499.711 183.416 L 499.711 183.416 L 499.711 183.416 Q 503.683 186.376 509.749 186.376 Z  M 591.553 203.708 L 591.553 203.708 L 591.553 203.708 Q 582.887 203.708 576.098 200.892 L 576.098 200.892 L 576.098 200.892 Q 569.31 198.076 564.616 192.948 L 564.616 192.948 L 564.616 192.948 Q 559.922 187.821 557.539 180.455 L 557.539 180.455 L 557.539 180.455 Q 555.156 173.089 555.156 163.989 L 555.156 163.989 L 555.156 163.989 Q 555.156 155.034 557.467 147.74 L 557.467 147.74 L 557.467 147.74 Q 559.777 140.447 564.327 135.247 L 564.327 135.247 L 564.327 135.247 Q 568.877 130.047 575.521 127.231 L 575.521 127.231 L 575.521 127.231 Q 582.165 124.414 590.686 124.414 L 590.686 124.414 L 590.686 124.414 Q 600.074 124.414 606.791 127.592 L 606.791 127.592 L 606.791 127.592 Q 613.507 130.769 617.768 136.113 L 617.768 136.113 L 617.768 136.113 Q 622.028 141.458 623.978 148.463 L 623.978 148.463 L 623.978 148.463 Q 625.928 155.468 625.928 163.123 L 625.928 163.123 L 625.928 169.478 L 577.254 169.478 L 577.254 170.624 L 577.254 170.624 Q 577.254 178.072 581.298 182.441 L 581.298 182.441 L 581.298 182.441 Q 585.342 186.81 594.008 186.81 L 594.008 186.81 L 594.008 186.81 Q 600.652 186.81 604.841 184.16 L 604.841 184.16 L 604.841 184.16 Q 609.029 181.51 612.64 177.786 L 612.64 177.786 L 623.328 191.109 L 623.328 191.109 Q 618.273 197.047 610.113 200.378 L 610.113 200.378 L 610.113 200.378 Q 601.952 203.708 591.553 203.708 Z  M 591.12 140.158 L 591.12 140.158 L 591.12 140.158 Q 584.62 140.158 580.937 144.418 L 580.937 144.418 L 580.937 144.418 Q 577.254 148.679 577.254 155.756 L 577.254 155.756 L 577.254 156.912 L 603.83 156.912 L 603.83 155.612 L 603.83 155.612 Q 603.83 148.679 600.724 144.418 L 600.724 144.418 L 600.724 144.418 Q 597.619 140.158 591.12 140.158 Z  M 678.123 201.975 L 665.413 201.975 L 665.413 201.975 Q 654.291 201.975 648.586 196.342 L 648.586 196.342 L 648.586 196.342 Q 642.881 190.709 642.881 179.877 L 642.881 179.877 L 642.881 142.757 L 632.193 142.757 L 632.193 126.148 L 637.537 126.148 L 637.537 126.148 Q 641.87 126.148 643.459 124.053 L 643.459 124.053 L 643.459 124.053 Q 645.047 121.959 645.047 118.059 L 645.047 118.059 L 645.047 105.638 L 664.257 105.638 L 664.257 126.148 L 679.278 126.148 L 679.278 142.757 L 664.257 142.757 L 664.257 185.365 L 678.123 185.365 L 678.123 201.975 Z  M 722.951 203.708 L 722.951 203.708 L 722.951 203.708 Q 714.285 203.708 707.497 200.892 L 707.497 200.892 L 707.497 200.892 Q 700.709 198.076 696.015 192.948 L 696.015 192.948 L 696.015 192.948 Q 691.32 187.821 688.937 180.455 L 688.937 180.455 L 688.937 180.455 Q 686.554 173.089 686.554 163.989 L 686.554 163.989 L 686.554 163.989 Q 686.554 155.034 688.865 147.74 L 688.865 147.74 L 688.865 147.74 Q 691.176 140.447 695.726 135.247 L 695.726 135.247 L 695.726 135.247 Q 700.275 130.047 706.919 127.231 L 706.919 127.231 L 706.919 127.231 Q 713.563 124.414 722.085 124.414 L 722.085 124.414 L 722.085 124.414 Q 731.473 124.414 738.189 127.592 L 738.189 127.592 L 738.189 127.592 Q 744.905 130.769 749.166 136.113 L 749.166 136.113 L 749.166 136.113 Q 753.427 141.458 755.377 148.463 L 755.377 148.463 L 755.377 148.463 Q 757.327 155.468 757.327 163.123 L 757.327 163.123 L 757.327 169.478 L 708.652 169.478 L 708.652 170.624 L 708.652 170.624 Q 708.652 178.072 712.697 182.441 L 712.697 182.441 L 712.697 182.441 Q 716.741 186.81 725.407 186.81 L 725.407 186.81 L 725.407 186.81 Q 732.051 186.81 736.239 184.16 L 736.239 184.16 L 736.239 184.16 Q 740.428 181.51 744.039 177.786 L 744.039 177.786 L 754.727 191.109 L 754.727 191.109 Q 749.672 197.047 741.511 200.378 L 741.511 200.378 L 741.511 200.378 Q 733.351 203.708 722.951 203.708 Z  M 722.518 140.158 L 722.518 140.158 L 722.518 140.158 Q 716.019 140.158 712.336 144.418 L 712.336 144.418 L 712.336 144.418 Q 708.652 148.679 708.652 155.756 L 708.652 155.756 L 708.652 156.912 L 735.228 156.912 L 735.228 155.612 L 735.228 155.612 Q 735.228 148.679 732.123 144.418 L 732.123 144.418 L 732.123 144.418 Q 729.018 140.158 722.518 140.158 Z  M 801.866 203.708 L 801.866 203.708 L 801.866 203.708 Q 793.2 203.708 786.412 200.892 L 786.412 200.892 L 786.412 200.892 Q 779.624 198.076 774.929 192.948 L 774.929 192.948 L 774.929 192.948 Q 770.235 187.821 767.852 180.455 L 767.852 180.455 L 767.852 180.455 Q 765.469 173.089 765.469 163.989 L 765.469 163.989 L 765.469 163.989 Q 765.469 155.034 767.78 147.74 L 767.78 147.74 L 767.78 147.74 Q 770.091 140.447 774.641 135.247 L 774.641 135.247 L 774.641 135.247 Q 779.19 130.047 785.834 127.231 L 785.834 127.231 L 785.834 127.231 Q 792.478 124.414 801 124.414 L 801 124.414 L 801 124.414 Q 810.388 124.414 817.104 127.592 L 817.104 127.592 L 817.104 127.592 Q 823.82 130.769 828.081 136.113 L 828.081 136.113 L 828.081 136.113 Q 832.342 141.458 834.292 148.463 L 834.292 148.463 L 834.292 148.463 Q 836.242 155.468 836.242 163.123 L 836.242 163.123 L 836.242 169.478 L 787.567 169.478 L 787.567 170.624 L 787.567 170.624 Q 787.567 178.072 791.612 182.441 L 791.612 182.441 L 791.612 182.441 Q 795.656 186.81 804.322 186.81 L 804.322 186.81 L 804.322 186.81 Q 810.966 186.81 815.154 184.16 L 815.154 184.16 L 815.154 184.16 Q 819.343 181.51 822.954 177.786 L 822.954 177.786 L 833.642 191.109 L 833.642 191.109 Q 828.587 197.047 820.426 200.378 L 820.426 200.378 L 820.426 200.378 Q 812.266 203.708 801.866 203.708 Z  M 801.433 140.158 L 801.433 140.158 L 801.433 140.158 Q 794.934 140.158 791.25 144.418 L 791.25 144.418 L 791.25 144.418 Q 787.567 148.679 787.567 155.756 L 787.567 155.756 L 787.567 156.912 L 814.143 156.912 L 814.143 155.612 L 814.143 155.612 Q 814.143 148.679 811.038 144.418 L 811.038 144.418 L 811.038 144.418 Q 807.933 140.158 801.433 140.158 Z  M 870.527 201.975 L 849.15 201.975 L 849.15 126.148 L 870.527 126.148 L 870.527 142.613 L 871.249 142.613 L 871.249 142.613 Q 871.826 139.435 873.271 136.475 L 873.271 136.475 L 873.271 136.475 Q 874.715 133.514 877.098 131.203 L 877.098 131.203 L 877.098 131.203 Q 879.481 128.892 882.803 127.52 L 882.803 127.52 L 882.803 127.52 Q 886.125 126.148 890.603 126.148 L 890.603 126.148 L 894.358 126.148 L 894.358 146.079 L 889.014 146.079 L 889.014 146.079 Q 879.626 146.079 875.076 148.535 L 875.076 148.535 L 875.076 148.535 Q 870.527 150.99 870.527 157.634 L 870.527 157.634 L 870.527 201.975 Z " fill="rgb(204,34,85)"/><path d=" M 131.92 198.067 L 131.92 198.067 L 131.92 198.067 Q 120.943 198.067 113.432 194.528 L 113.432 194.528 L 113.432 194.528 Q 105.922 190.989 100 184.49 L 100 184.49 L 112.566 171.78 L 112.566 171.78 Q 116.61 176.257 121.521 178.857 L 121.521 178.857 L 121.521 178.857 Q 126.431 181.457 132.642 181.457 L 132.642 181.457 L 132.642 181.457 Q 138.997 181.457 141.452 179.507 L 141.452 179.507 L 141.452 179.507 Q 143.908 177.557 143.908 174.235 L 143.908 174.235 L 143.908 174.235 Q 143.908 168.891 136.253 167.88 L 136.253 167.88 L 128.02 166.869 L 128.02 166.869 Q 102.455 163.691 102.455 143.471 L 102.455 143.471 L 102.455 143.471 Q 102.455 137.982 104.55 133.432 L 104.55 133.432 L 104.55 133.432 Q 106.644 128.883 110.471 125.633 L 110.471 125.633 L 110.471 125.633 Q 114.299 122.383 119.715 120.578 L 119.715 120.578 L 119.715 120.578 Q 125.131 118.772 131.92 118.772 L 131.92 118.772 L 131.92 118.772 Q 137.842 118.772 142.391 119.567 L 142.391 119.567 L 142.391 119.567 Q 146.941 120.361 150.48 121.878 L 150.48 121.878 L 150.48 121.878 Q 154.018 123.394 156.979 125.633 L 156.979 125.633 L 156.979 125.633 Q 159.94 127.872 162.829 130.616 L 162.829 130.616 L 150.552 143.182 L 150.552 143.182 Q 146.941 139.571 142.391 137.477 L 142.391 137.477 L 142.391 137.477 Q 137.842 135.382 133.075 135.382 L 133.075 135.382 L 133.075 135.382 Q 127.587 135.382 125.276 137.116 L 125.276 137.116 L 125.276 137.116 Q 122.965 138.849 122.965 141.737 L 122.965 141.737 L 122.965 141.737 Q 122.965 144.77 124.626 146.431 L 124.626 146.431 L 124.626 146.431 Q 126.287 148.092 130.909 148.815 L 130.909 148.815 L 139.43 149.97 L 139.43 149.97 Q 164.417 153.292 164.417 172.791 L 164.417 172.791 L 164.417 172.791 Q 164.417 178.279 162.106 182.901 L 162.106 182.901 L 162.106 182.901 Q 159.796 187.523 155.535 190.917 L 155.535 190.917 L 155.535 190.917 Q 151.274 194.311 145.28 196.189 L 145.28 196.189 L 145.28 196.189 Q 139.286 198.067 131.92 198.067 Z  M 207.368 198.067 L 207.368 198.067 L 207.368 198.067 Q 198.847 198.067 192.203 195.25 L 192.203 195.25 L 192.203 195.25 Q 185.559 192.434 181.081 187.306 L 181.081 187.306 L 181.081 187.306 Q 176.604 182.179 174.293 174.813 L 174.293 174.813 L 174.293 174.813 Q 171.982 167.447 171.982 158.347 L 171.982 158.347 L 171.982 158.347 Q 171.982 149.248 174.293 141.954 L 174.293 141.954 L 174.293 141.954 Q 176.604 134.66 181.081 129.461 L 181.081 129.461 L 181.081 129.461 Q 185.559 124.261 192.203 121.517 L 192.203 121.517 L 192.203 121.517 Q 198.847 118.772 207.368 118.772 L 207.368 118.772 L 207.368 118.772 Q 218.923 118.772 226.65 123.972 L 226.65 123.972 L 226.65 123.972 Q 234.377 129.172 237.699 138.56 L 237.699 138.56 L 220.367 146.07 L 220.367 146.07 Q 219.356 141.737 216.179 138.704 L 216.179 138.704 L 216.179 138.704 Q 213.001 135.671 207.368 135.671 L 207.368 135.671 L 207.368 135.671 Q 200.869 135.671 197.547 139.918 L 197.547 139.918 L 197.547 139.918 Q 194.225 144.166 194.225 151.365 L 194.225 151.365 L 194.225 165.474 L 194.225 165.474 Q 194.225 172.673 197.547 176.92 L 197.547 176.92 L 197.547 176.92 Q 200.869 181.168 207.368 181.168 L 207.368 181.168 L 207.368 181.168 Q 213.723 181.168 216.829 177.79 L 216.829 177.79 L 216.829 177.79 Q 219.934 174.412 221.523 169.799 L 221.523 169.799 L 238.133 177.003 L 238.133 177.003 Q 234.377 187.869 226.506 192.968 L 226.506 192.968 L 226.506 192.968 Q 218.634 198.067 207.368 198.067 Z  M 270.54 196.333 L 249.164 196.333 L 249.164 120.506 L 270.54 120.506 L 270.54 136.971 L 271.262 136.971 L 271.262 136.971 Q 271.84 133.794 273.284 130.833 L 273.284 130.833 L 273.284 130.833 Q 274.729 127.872 277.112 125.561 L 277.112 125.561 L 277.112 125.561 Q 279.495 123.25 282.817 121.878 L 282.817 121.878 L 282.817 121.878 Q 286.139 120.506 290.616 120.506 L 290.616 120.506 L 294.372 120.506 L 294.372 140.437 L 289.028 140.437 L 289.028 140.437 Q 279.639 140.437 275.09 142.893 L 275.09 142.893 L 275.09 142.893 Q 270.54 145.348 270.54 151.992 L 270.54 151.992 L 270.54 196.333 Z  M 371.12 196.333 L 359.276 196.333 L 359.276 196.333 Q 353.499 196.333 349.672 192.722 L 349.672 192.722 L 349.672 192.722 Q 345.844 189.112 344.833 183.045 L 344.833 183.045 L 343.967 183.045 L 343.967 183.045 Q 342.233 190.412 336.312 194.239 L 336.312 194.239 L 336.312 194.239 Q 330.39 198.067 321.724 198.067 L 321.724 198.067 L 321.724 198.067 Q 310.313 198.067 304.247 192.019 L 304.247 192.019 L 304.247 192.019 Q 298.181 185.972 298.181 176.038 L 298.181 176.038 L 298.181 176.038 Q 298.181 164.088 306.919 158.257 L 306.919 158.257 L 306.919 158.257 Q 315.658 152.425 330.679 152.425 L 330.679 152.425 L 342.667 152.425 L 342.667 147.659 L 342.667 147.659 Q 342.667 142.171 339.778 138.921 L 339.778 138.921 L 339.778 138.921 Q 336.889 135.671 330.101 135.671 L 330.101 135.671 L 330.101 135.671 Q 323.746 135.671 319.991 138.415 L 319.991 138.415 L 319.991 138.415 Q 316.235 141.16 313.78 144.626 L 313.78 144.626 L 301.07 133.297 L 301.07 133.297 Q 305.692 126.47 312.697 122.621 L 312.697 122.621 L 312.697 122.621 Q 319.702 118.772 331.69 118.772 L 331.69 118.772 L 331.69 118.772 Q 347.866 118.772 355.955 125.85 L 355.955 125.85 L 355.955 125.85 Q 364.043 132.927 364.043 146.504 L 364.043 146.504 L 364.043 179.723 L 371.12 179.723 L 371.12 196.333 Z  M 329.668 183.19 L 329.668 183.19 L 329.668 183.19 Q 335.012 183.19 338.839 180.897 L 338.839 180.897 L 338.839 180.897 Q 342.667 178.604 342.667 173.444 L 342.667 173.444 L 342.667 164.558 L 332.267 164.558 L 332.267 164.558 Q 319.702 164.558 319.702 173.014 L 319.702 173.014 L 319.702 175.164 L 319.702 175.164 Q 319.702 179.32 322.301 181.255 L 322.301 181.255 L 322.301 181.255 Q 324.901 183.19 329.668 183.19 Z  M 383.162 225.22 L 383.162 120.506 L 404.538 120.506 L 404.538 133.216 L 405.261 133.216 L 405.261 133.216 Q 406.849 126.861 412.554 122.817 L 412.554 122.817 L 412.554 122.817 Q 418.26 118.772 425.626 118.772 L 425.626 118.772 L 425.626 118.772 Q 440.069 118.772 447.435 128.883 L 447.435 128.883 L 447.435 128.883 Q 454.801 138.993 454.801 158.347 L 454.801 158.347 L 454.801 158.347 Q 454.801 177.701 447.435 187.884 L 447.435 187.884 L 447.435 187.884 Q 440.069 198.067 425.626 198.067 L 425.626 198.067 L 425.626 198.067 Q 421.87 198.067 418.548 196.983 L 418.548 196.983 L 418.548 196.983 Q 415.226 195.9 412.554 193.95 L 412.554 193.95 L 412.554 193.95 Q 409.882 192 408.005 189.328 L 408.005 189.328 L 408.005 189.328 Q 406.127 186.656 405.261 183.623 L 405.261 183.623 L 404.538 183.623 L 404.538 225.22 L 383.162 225.22 Z  M 418.548 180.734 L 418.548 180.734 L 418.548 180.734 Q 424.615 180.734 428.587 176.474 L 428.587 176.474 L 428.587 176.474 Q 432.559 172.213 432.559 164.991 L 432.559 164.991 L 432.559 151.848 L 432.559 151.848 Q 432.559 144.626 428.587 140.365 L 428.587 140.365 L 428.587 140.365 Q 424.615 136.104 418.548 136.104 L 418.548 136.104 L 418.548 136.104 Q 412.482 136.104 408.51 139.065 L 408.51 139.065 L 408.51 139.065 Q 404.538 142.026 404.538 147.226 L 404.538 147.226 L 404.538 169.613 L 404.538 169.613 Q 404.538 174.813 408.51 177.774 L 408.51 177.774 L 408.51 177.774 Q 412.482 180.734 418.548 180.734 Z  M 468.721 225.22 L 468.721 120.506 L 490.097 120.506 L 490.097 133.216 L 490.819 133.216 L 490.819 133.216 Q 492.408 126.861 498.113 122.817 L 498.113 122.817 L 498.113 122.817 Q 503.818 118.772 511.185 118.772 L 511.185 118.772 L 511.185 118.772 Q 525.628 118.772 532.994 128.883 L 532.994 128.883 L 532.994 128.883 Q 540.36 138.993 540.36 158.347 L 540.36 158.347 L 540.36 158.347 Q 540.36 177.701 532.994 187.884 L 532.994 187.884 L 532.994 187.884 Q 525.628 198.067 511.185 198.067 L 511.185 198.067 L 511.185 198.067 Q 507.429 198.067 504.107 196.983 L 504.107 196.983 L 504.107 196.983 Q 500.785 195.9 498.113 193.95 L 498.113 193.95 L 498.113 193.95 Q 495.441 192 493.564 189.328 L 493.564 189.328 L 493.564 189.328 Q 491.686 186.656 490.819 183.623 L 490.819 183.623 L 490.097 183.623 L 490.097 225.22 L 468.721 225.22 Z  M 504.107 180.734 L 504.107 180.734 L 504.107 180.734 Q 510.174 180.734 514.145 176.474 L 514.145 176.474 L 514.145 176.474 Q 518.117 172.213 518.117 164.991 L 518.117 164.991 L 518.117 151.848 L 518.117 151.848 Q 518.117 144.626 514.145 140.365 L 514.145 140.365 L 514.145 140.365 Q 510.174 136.104 504.107 136.104 L 504.107 136.104 L 504.107 136.104 Q 498.041 136.104 494.069 139.065 L 494.069 139.065 L 494.069 139.065 Q 490.097 142.026 490.097 147.226 L 490.097 147.226 L 490.097 169.613 L 490.097 169.613 Q 490.097 174.813 494.069 177.774 L 494.069 177.774 L 494.069 177.774 Q 498.041 180.734 504.107 180.734 Z  M 585.911 198.067 L 585.911 198.067 L 585.911 198.067 Q 577.245 198.067 570.457 195.25 L 570.457 195.25 L 570.457 195.25 Q 563.668 192.434 558.974 187.306 L 558.974 187.306 L 558.974 187.306 Q 554.28 182.179 551.897 174.813 L 551.897 174.813 L 551.897 174.813 Q 549.514 167.447 549.514 158.347 L 549.514 158.347 L 549.514 158.347 Q 549.514 149.392 551.825 142.098 L 551.825 142.098 L 551.825 142.098 Q 554.136 134.805 558.685 129.605 L 558.685 129.605 L 558.685 129.605 Q 563.235 124.405 569.879 121.589 L 569.879 121.589 L 569.879 121.589 Q 576.523 118.772 585.044 118.772 L 585.044 118.772 L 585.044 118.772 Q 594.433 118.772 601.149 121.95 L 601.149 121.95 L 601.149 121.95 Q 607.865 125.128 612.126 130.472 L 612.126 130.472 L 612.126 130.472 Q 616.386 135.816 618.336 142.821 L 618.336 142.821 L 618.336 142.821 Q 620.286 149.826 620.286 157.481 L 620.286 157.481 L 620.286 163.836 L 571.612 163.836 L 571.612 164.982 L 571.612 164.982 Q 571.612 172.43 575.656 176.799 L 575.656 176.799 L 575.656 176.799 Q 579.7 181.168 588.366 181.168 L 588.366 181.168 L 588.366 181.168 Q 595.01 181.168 599.199 178.518 L 599.199 178.518 L 599.199 178.518 Q 603.387 175.868 606.998 172.144 L 606.998 172.144 L 617.686 185.467 L 617.686 185.467 Q 612.631 191.405 604.471 194.736 L 604.471 194.736 L 604.471 194.736 Q 596.31 198.067 585.911 198.067 Z  M 585.478 134.516 L 585.478 134.516 L 585.478 134.516 Q 578.978 134.516 575.295 138.777 L 575.295 138.777 L 575.295 138.777 Q 571.612 143.037 571.612 150.115 L 571.612 150.115 L 571.612 151.27 L 598.188 151.27 L 598.188 149.97 L 598.188 149.97 Q 598.188 143.037 595.082 138.777 L 595.082 138.777 L 595.082 138.777 Q 591.977 134.516 585.478 134.516 Z  M 672.481 196.333 L 659.771 196.333 L 659.771 196.333 Q 648.649 196.333 642.944 190.7 L 642.944 190.7 L 642.944 190.7 Q 637.239 185.067 637.239 174.235 L 637.239 174.235 L 637.239 137.116 L 626.551 137.116 L 626.551 120.506 L 631.895 120.506 L 631.895 120.506 Q 636.228 120.506 637.817 118.411 L 637.817 118.411 L 637.817 118.411 Q 639.406 116.317 639.406 112.417 L 639.406 112.417 L 639.406 99.996 L 658.615 99.996 L 658.615 120.506 L 673.636 120.506 L 673.636 137.116 L 658.615 137.116 L 658.615 179.723 L 672.481 179.723 L 672.481 196.333 Z  M 717.309 198.067 L 717.309 198.067 L 717.309 198.067 Q 708.643 198.067 701.855 195.25 L 701.855 195.25 L 701.855 195.25 Q 695.067 192.434 690.373 187.306 L 690.373 187.306 L 690.373 187.306 Q 685.678 182.179 683.295 174.813 L 683.295 174.813 L 683.295 174.813 Q 680.912 167.447 680.912 158.347 L 680.912 158.347 L 680.912 158.347 Q 680.912 149.392 683.223 142.098 L 683.223 142.098 L 683.223 142.098 Q 685.534 134.805 690.084 129.605 L 690.084 129.605 L 690.084 129.605 Q 694.633 124.405 701.277 121.589 L 701.277 121.589 L 701.277 121.589 Q 707.921 118.772 716.443 118.772 L 716.443 118.772 L 716.443 118.772 Q 725.831 118.772 732.547 121.95 L 732.547 121.95 L 732.547 121.95 Q 739.263 125.128 743.524 130.472 L 743.524 130.472 L 743.524 130.472 Q 747.785 135.816 749.735 142.821 L 749.735 142.821 L 749.735 142.821 Q 751.685 149.826 751.685 157.481 L 751.685 157.481 L 751.685 163.836 L 703.011 163.836 L 703.011 164.982 L 703.011 164.982 Q 703.011 172.43 707.055 176.799 L 707.055 176.799 L 707.055 176.799 Q 711.099 181.168 719.765 181.168 L 719.765 181.168 L 719.765 181.168 Q 726.409 181.168 730.597 178.518 L 730.597 178.518 L 730.597 178.518 Q 734.786 175.868 738.397 172.144 L 738.397 172.144 L 749.085 185.467 L 749.085 185.467 Q 744.03 191.405 735.869 194.736 L 735.869 194.736 L 735.869 194.736 Q 727.709 198.067 717.309 198.067 Z  M 716.876 134.516 L 716.876 134.516 L 716.876 134.516 Q 710.377 134.516 706.694 138.777 L 706.694 138.777 L 706.694 138.777 Q 703.011 143.037 703.011 150.115 L 703.011 150.115 L 703.011 151.27 L 729.586 151.27 L 729.586 149.97 L 729.586 149.97 Q 729.586 143.037 726.481 138.777 L 726.481 138.777 L 726.481 138.777 Q 723.376 134.516 716.876 134.516 Z  M 796.224 198.067 L 796.224 198.067 L 796.224 198.067 Q 787.558 198.067 780.77 195.25 L 780.77 195.25 L 780.77 195.25 Q 773.982 192.434 769.288 187.306 L 769.288 187.306 L 769.288 187.306 Q 764.593 182.179 762.21 174.813 L 762.21 174.813 L 762.21 174.813 Q 759.827 167.447 759.827 158.347 L 759.827 158.347 L 759.827 158.347 Q 759.827 149.392 762.138 142.098 L 762.138 142.098 L 762.138 142.098 Q 764.449 134.805 768.999 129.605 L 768.999 129.605 L 768.999 129.605 Q 773.548 124.405 780.192 121.589 L 780.192 121.589 L 780.192 121.589 Q 786.836 118.772 795.358 118.772 L 795.358 118.772 L 795.358 118.772 Q 804.746 118.772 811.462 121.95 L 811.462 121.95 L 811.462 121.95 Q 818.178 125.128 822.439 130.472 L 822.439 130.472 L 822.439 130.472 Q 826.7 135.816 828.65 142.821 L 828.65 142.821 L 828.65 142.821 Q 830.6 149.826 830.6 157.481 L 830.6 157.481 L 830.6 163.836 L 781.925 163.836 L 781.925 164.982 L 781.925 164.982 Q 781.925 172.43 785.97 176.799 L 785.97 176.799 L 785.97 176.799 Q 790.014 181.168 798.68 181.168 L 798.68 181.168 L 798.68 181.168 Q 805.324 181.168 809.512 178.518 L 809.512 178.518 L 809.512 178.518 Q 813.701 175.868 817.312 172.144 L 817.312 172.144 L 828 185.467 L 828 185.467 Q 822.945 191.405 814.784 194.736 L 814.784 194.736 L 814.784 194.736 Q 806.624 198.067 796.224 198.067 Z  M 795.791 134.516 L 795.791 134.516 L 795.791 134.516 Q 789.292 134.516 785.609 138.777 L 785.609 138.777 L 785.609 138.777 Q 781.925 143.037 781.925 150.115 L 781.925 150.115 L 781.925 151.27 L 808.501 151.27 L 808.501 149.97 L 808.501 149.97 Q 808.501 143.037 805.396 138.777 L 805.396 138.777 L 805.396 138.777 Q 802.291 134.516 795.791 134.516 Z  M 864.885 196.333 L 843.508 196.333 L 843.508 120.506 L 864.885 120.506 L 864.885 136.971 L 865.607 136.971 L 865.607 136.971 Q 866.184 133.794 867.629 130.833 L 867.629 130.833 L 867.629 130.833 Q 869.073 127.872 871.456 125.561 L 871.456 125.561 L 871.456 125.561 Q 873.839 123.25 877.161 121.878 L 877.161 121.878 L 877.161 121.878 Q 880.483 120.506 884.961 120.506 L 884.961 120.506 L 888.716 120.506 L 888.716 140.437 L 883.372 140.437 L 883.372 140.437 Q 873.984 140.437 869.434 142.893 L 869.434 142.893 L 869.434 142.893 Q 864.885 145.348 864.885 151.992 L 864.885 151.992 L 864.885 196.333 Z " fill="rgb(17,153,255)"/></g></g></svg>